<?xml version="1.0" standalone="no"?>
<!DOCTYPE svg PUBLIC "-//W3C//DTD SVG 20010904//EN"
 "http://www.w3.org/TR/2001/REC-SVG-20010904/DTD/svg10.dtd">
<svg version="1.0" xmlns="http://www.w3.org/2000/svg"
 width="512.000000pt" height="512.000000pt" viewBox="0 0 512.000000 512.000000"
 preserveAspectRatio="xMidYMid meet">
<metadata>
Created by potrace 1.14, written by Peter Selinger 2001-2017
</metadata>
<g transform="translate(0.000000,512.000000) scale(0.100000,-0.100000)"
fill="#000000" stroke="none">
<path d="M2405 4880 c-798 -49 -1529 -526 -1905 -1243 -390 -742 -344 -1654
116 -2354 182 -275 453 -537 734 -709 369 -225 769 -336 1210 -336 385 0 710
77 1045 246 247 126 429 260 625 462 428 442 652 996 652 1614 0 365 -69 675
-221 995 -114 238 -245 427 -431 619 -415 428 -938 669 -1535 706 -82 5 -154
9 -160 8 -5 0 -64 -4 -130 -8z m470 -905 c65 -19 134 -67 180 -126 126 -163
63 -395 -133 -487 -50 -24 -69 -27 -157 -27 -87 0 -107 3 -155 26 -67 31 -140
102 -172 166 -32 67 -33 186 0 258 72 157 264 240 437 190z m-270 -971 c65
-16 121 -49 175 -103 77 -75 102 -141 101 -267 0 -131 -12 -187 -97 -489 -108
-385 -126 -466 -128 -565 -1 -101 14 -138 71 -166 55 -27 196 -25 283 4 35 12
65 20 67 18 2 -1 -5 -37 -14 -79 l-16 -76 -161 -59 c-89 -33 -185 -65 -214
-71 -69 -14 -236 -14 -304 0 -132 28 -235 105 -284 211 -26 58 -28 71 -27 173
1 132 12 183 108 525 100 356 116 428 117 519 0 93 -19 144 -66 169 -47 25
-201 22 -286 -6 -35 -12 -65 -20 -67 -19 -4 5 36 150 44 157 12 11 219 86 303
110 123 35 289 41 395 14z"/>
</g>
</svg>
