<?xml version="1.0" standalone="no"?>
<!DOCTYPE svg PUBLIC "-//W3C//DTD SVG 20010904//EN"
 "http://www.w3.org/TR/2001/REC-SVG-20010904/DTD/svg10.dtd">
<svg version="1.0" xmlns="http://www.w3.org/2000/svg"
 width="161.000000pt" height="143.000000pt" viewBox="0 0 161.000000 143.000000"
 preserveAspectRatio="xMidYMid meet">
<metadata>
Created by potrace 1.14, written by Peter Selinger 2001-2017
</metadata>
<g transform="translate(0.000000,143.000000) scale(0.100000,-0.100000)"
fill="#000000" stroke="none">
<path d="M570 860 c-4 -8 -22 -71 -40 -140 l-32 -124 24 -21 c19 -15 23 -26
18 -45 -8 -29 5 -50 31 -50 11 0 19 -9 21 -22 2 -18 11 -24 35 -26 21 -2 34
-10 38 -23 4 -12 15 -19 31 -19 15 0 24 -6 24 -15 0 -23 28 -30 56 -15 19 11
27 11 36 2 18 -18 46 -14 65 8 10 11 27 20 40 20 12 0 29 10 37 21 9 13 21 19
31 16 9 -4 24 2 35 13 11 11 29 20 39 20 40 0 68 59 40 87 -8 8 -7 16 2 30 10
16 6 42 -22 147 -18 70 -36 131 -39 136 -3 5 -108 10 -234 12 -195 3 -229 1
-236 -12z m132 -16 c4 -3 -7 -37 -23 -76 -33 -80 -36 -113 -13 -122 23 -9 50
9 84 59 30 43 33 45 80 45 l49 0 105 -107 c71 -73 106 -115 106 -131 0 -42
-29 -37 -81 14 -29 29 -49 42 -49 33 0 -8 14 -28 30 -44 33 -32 37 -47 15 -65
-11 -9 -23 -3 -63 34 -57 53 -79 50 -27 -4 24 -25 34 -42 29 -53 -10 -28 -36
-20 -81 25 -23 23 -45 39 -48 36 -3 -3 8 -19 25 -36 30 -30 39 -65 20 -77 -18
-11 -51 6 -60 31 -5 13 -16 24 -23 24 -8 0 -22 9 -32 20 -10 11 -24 20 -32 20
-7 0 -18 11 -23 25 -5 14 -14 26 -20 26 -5 1 -16 2 -22 3 -7 1 -12 8 -10 15 5
24 -20 43 -49 37 -19 -3 -32 1 -44 14 -17 19 -17 24 10 122 37 139 36 138 94
138 26 0 50 -3 53 -6z"/>
</g>
</svg>
