<?xml version="1.0" standalone="no"?>
<!DOCTYPE svg PUBLIC "-//W3C//DTD SVG 20010904//EN"
 "http://www.w3.org/TR/2001/REC-SVG-20010904/DTD/svg10.dtd">
<svg version="1.0" xmlns="http://www.w3.org/2000/svg"
 width="512.000000pt" height="512.000000pt" viewBox="0 0 512.000000 512.000000"
 preserveAspectRatio="xMidYMid meet">
<metadata>
Created by potrace 1.14, written by Peter Selinger 2001-2017
</metadata>
<g transform="translate(0.000000,512.000000) scale(0.100000,-0.100000)"
fill="#000000" stroke="none">
<path d="M1584 4466 c-240 -46 -377 -145 -409 -296 -4 -19 -21 -50 -37 -69
-63 -71 -89 -171 -94 -353 -3 -112 -6 -131 -24 -150 -39 -42 -52 -159 -29
-270 15 -75 79 -203 137 -273 27 -33 55 -78 62 -100 74 -229 264 -402 483
-441 42 -7 42 -10 23 65 -34 133 -28 250 18 354 19 43 24 77 28 178 7 144 34
245 94 344 20 33 43 78 51 100 39 112 137 212 266 274 79 38 189 71 235 71 29
0 29 30 1 130 -59 213 -215 363 -436 421 -101 26 -274 33 -369 15z"/>
<path d="M3275 4473 c-71 -10 -193 -46 -254 -76 -96 -46 -154 -108 -180 -190
-11 -36 -36 -86 -55 -112 -27 -34 -76 -152 -76 -180 0 -2 34 -11 76 -20 96
-21 250 -98 332 -166 67 -55 140 -146 177 -219 47 -94 66 -178 76 -350 8 -143
13 -173 35 -223 51 -114 54 -260 9 -387 -16 -46 -16 -46 67 -29 193 40 379
220 448 434 7 22 35 67 62 100 92 113 148 259 148 385 0 81 -14 131 -44 161
-23 23 -24 31 -28 199 -4 155 -8 184 -31 256 -75 227 -257 373 -517 414 -63
10 -185 11 -245 3z"/>
<path d="M2463 3780 c-169 -23 -320 -86 -388 -162 -39 -43 -75 -118 -75 -156
0 -8 -14 -30 -31 -50 -66 -75 -99 -202 -99 -382 0 -88 -3 -110 -17 -121 -9 -8
-22 -28 -30 -46 -18 -45 -17 -196 3 -264 23 -76 77 -176 128 -234 23 -28 49
-68 56 -90 7 -22 27 -69 45 -105 110 -220 302 -353 508 -352 167 1 340 101
448 259 35 51 99 184 99 207 0 8 23 41 50 73 55 64 124 193 139 263 14 59 14
201 0 237 -6 15 -20 38 -32 51 -20 22 -22 37 -28 205 -5 162 -8 190 -32 255
-89 253 -297 396 -602 415 -44 3 -108 1 -142 -3z"/>
<path d="M1020 2656 c-340 -140 -437 -190 -542 -278 -158 -132 -296 -445 -314
-713 -8 -109 -7 -110 120 -154 127 -45 261 -77 437 -105 245 -40 217 -46 265
55 57 118 114 200 198 285 117 118 242 188 569 319 165 67 168 69 162 94 -9
35 -50 107 -110 190 -48 67 -52 70 -100 76 -165 20 -279 73 -392 179 -43 40
-85 86 -92 100 -8 14 -17 26 -20 25 -3 0 -85 -33 -181 -73z"/>
<path d="M3891 2694 c-14 -20 -53 -61 -87 -92 -112 -103 -218 -153 -364 -174
l-79 -11 -55 -82 c-93 -141 -123 -215 -86 -215 15 0 252 -95 355 -142 287
-132 433 -265 548 -498 l52 -105 35 3 c235 19 671 127 733 180 52 45 -21 384
-128 591 -97 187 -205 281 -455 396 -78 36 -437 185 -444 185 -1 0 -12 -16
-25 -36z"/>
<path d="M1945 2003 c-404 -167 -502 -214 -598 -287 -152 -114 -259 -295 -324
-545 -29 -113 -42 -283 -24 -305 17 -21 165 -72 302 -106 508 -124 1392 -155
2089 -74 269 31 564 98 686 156 l49 23 3 68 c6 136 -50 344 -138 516 -116 226
-238 316 -670 494 -247 102 -226 98 -257 57 -114 -151 -293 -253 -469 -267
-178 -14 -387 83 -511 236 -26 33 -55 60 -63 59 -8 0 -42 -11 -75 -25z"/>
</g>
</svg>
