<?xml version="1.0" standalone="no"?>
<!DOCTYPE svg PUBLIC "-//W3C//DTD SVG 20010904//EN"
 "http://www.w3.org/TR/2001/REC-SVG-20010904/DTD/svg10.dtd">
<svg version="1.0" xmlns="http://www.w3.org/2000/svg"
 width="225.000000pt" height="225.000000pt" viewBox="0 0 225.000000 225.000000"
 preserveAspectRatio="xMidYMid meet">
<metadata>
Created by potrace 1.14, written by Peter Selinger 2001-2017
</metadata>
<g transform="translate(0.000000,225.000000) scale(0.100000,-0.100000)"
fill="#000000" stroke="none">
<path d="M1034 2241 c-141 -23 -260 -85 -364 -190 -52 -52 -85 -97 -107 -142
-31 -65 -63 -190 -63 -248 0 -44 -30 -91 -59 -91 -41 0 -104 -45 -131 -92 -60
-106 -7 -234 113 -270 23 -7 51 -24 63 -37 28 -32 80 -33 106 -2 16 21 18 44
18 221 0 155 -3 200 -14 209 -20 17 -3 88 44 187 86 179 272 294 477 294 97 0
163 -15 253 -57 135 -64 245 -200 284 -353 12 -47 12 -57 0 -71 -11 -12 -14
-58 -14 -210 0 -164 3 -198 16 -218 20 -28 15 -121 -10 -169 -36 -70 -71 -89
-259 -137 -114 -30 -131 -32 -159 -20 -82 34 -146 -58 -83 -120 33 -34 70 -32
106 6 23 25 49 36 141 60 210 54 284 96 324 182 16 36 24 70 24 112 1 73 27
110 85 121 42 7 99 52 121 95 19 38 18 133 -2 176 -22 45 -74 84 -122 90 -48
6 -68 40 -77 132 -24 241 -202 456 -435 525 -66 20 -205 28 -276 17z"/>
<path d="M1011 1984 c-263 -70 -390 -338 -321 -673 41 -199 170 -395 301 -455
l53 -25 29 35 c56 67 125 81 205 42 l45 -23 59 65 c195 211 256 593 131 821
-94 174 -309 265 -502 213z"/>
<path d="M692 750 c-119 -31 -206 -83 -302 -180 -53 -53 -98 -108 -117 -145
-39 -74 -103 -258 -103 -294 0 -40 33 -92 71 -113 32 -17 80 -18 884 -18 804
0 852 1 884 18 38 21 71 73 71 113 0 36 -64 220 -103 294 -45 86 -182 221
-274 268 -75 39 -203 77 -259 77 -40 0 -94 -34 -122 -77 -43 -65 -137 -86
-204 -46 -19 11 -59 26 -89 33 -56 13 -163 62 -174 80 -10 15 -82 11 -163 -10z"/>
</g>
</svg>
