<?xml version="1.0" standalone="no"?>
<!DOCTYPE svg PUBLIC "-//W3C//DTD SVG 20010904//EN"
 "http://www.w3.org/TR/2001/REC-SVG-20010904/DTD/svg10.dtd">
<svg version="1.0" xmlns="http://www.w3.org/2000/svg"
 width="512.000000pt" height="453.000000pt" viewBox="0 0 512.000000 453.000000"
 preserveAspectRatio="xMidYMid meet">
<metadata>
Created by potrace 1.14, written by Peter Selinger 2001-2017
</metadata>
<g transform="translate(0.000000,453.000000) scale(0.100000,-0.100000)"
fill="#000000" stroke="none">
<path d="M2400 4060 c-258 -31 -454 -246 -472 -515 l-3 -50 171 -3 171 -2 6
61 c7 84 50 165 105 204 36 25 55 30 115 33 130 6 194 -51 204 -182 8 -90 -15
-136 -108 -217 -208 -181 -259 -269 -259 -450 l0 -76 154 -2 c174 -2 164 -8
165 83 0 51 26 112 64 155 12 13 65 56 117 96 116 88 154 130 192 211 124 265
-23 555 -320 632 -91 24 -212 32 -302 22z"/>
<path d="M798 3098 c-16 -5 -28 -13 -28 -16 1 -4 18 -20 38 -35 20 -15 84 -65
142 -110 58 -45 356 -277 663 -516 307 -239 554 -438 550 -441 -13 -12 -225
-120 -378 -192 -315 -149 -466 -218 -479 -218 -6 0 -50 33 -97 73 -221 185
-410 345 -594 502 -110 94 -285 244 -390 333 -104 89 -194 162 -199 162 -25 0
55 -74 392 -360 204 -173 373 -317 376 -320 2 -3 10 -182 17 -399 10 -311 16
-396 27 -407 7 -8 140 -118 295 -246 155 -127 318 -262 362 -298 480 -400 668
-550 699 -555 36 -7 89 13 611 235 220 94 443 188 1136 480 174 73 327 141
339 150 22 16 23 24 36 351 7 184 15 371 18 417 4 45 4 82 1 82 -5 0 -758
-327 -1246 -541 -124 -54 -231 -99 -236 -99 -5 0 -25 21 -43 48 -156 219 -516
689 -578 754 -20 21 -34 40 -31 42 4 4 524 199 1767 662 184 68 350 133 369
143 l36 18 -60 36 c-34 21 -63 37 -67 37 -3 0 -6 -26 -6 -57 l0 -58 -68 -22
c-73 -23 -407 -147 -458 -169 -18 -8 -83 -32 -145 -55 -63 -23 -141 -52 -174
-64 -33 -13 -109 -41 -170 -63 -60 -22 -164 -61 -230 -87 -66 -26 -156 -60
-200 -75 -44 -16 -105 -39 -135 -50 -30 -12 -66 -25 -80 -30 -14 -5 -56 -20
-95 -35 -38 -15 -108 -40 -155 -57 -47 -17 -89 -35 -94 -39 -21 -19 -58 -7
-113 38 -32 26 -62 52 -68 58 -5 6 -21 19 -35 28 -14 10 -43 32 -66 50 -22 17
-67 52 -100 76 -32 25 -61 47 -64 50 -3 4 -23 19 -45 36 -22 16 -45 34 -52 40
-21 17 -37 30 -78 60 -22 17 -42 32 -45 35 -3 3 -25 21 -50 40 -25 19 -52 40
-60 47 -8 6 -39 31 -69 55 -29 24 -61 48 -70 53 -10 6 -42 31 -72 56 -29 25
-81 66 -114 90 -33 24 -69 51 -80 60 -102 84 -140 112 -170 126 -32 15 -35 20
-35 60 0 46 -5 49 -52 31z"/>
<path d="M2300 2550 l0 -180 180 0 180 0 0 180 0 180 -180 0 -180 0 0 -180z"/>
</g>
</svg>
