<?xml version="1.0" standalone="no"?>
<!DOCTYPE svg PUBLIC "-//W3C//DTD SVG 20010904//EN"
 "http://www.w3.org/TR/2001/REC-SVG-20010904/DTD/svg10.dtd">
<svg version="1.0" xmlns="http://www.w3.org/2000/svg"
 width="512.000000pt" height="512.000000pt" viewBox="0 0 512.000000 512.000000"
 preserveAspectRatio="xMidYMid meet">
<metadata>
Created by potrace 1.14, written by Peter Selinger 2001-2017
</metadata>
<g transform="translate(0.000000,512.000000) scale(0.100000,-0.100000)"
fill="#000000" stroke="none">
<path d="M1435 5088 c-169 -19 -382 -87 -545 -175 -203 -109 -432 -307 -571
-495 -74 -100 -174 -286 -217 -403 -141 -384 -116 -928 59 -1277 237 -474 620
-778 1144 -910 83 -21 113 -23 365 -23 268 0 278 1 377 28 206 55 357 122 516
229 48 32 93 58 100 56 7 -2 62 -55 123 -118 l112 -115 7 -100 c8 -129 22
-205 47 -272 46 -123 104 -190 572 -657 638 -636 757 -746 848 -789 103 -49
162 -60 308 -55 117 4 129 6 185 35 83 43 159 122 203 212 36 74 37 77 37 195
0 134 -10 183 -61 292 -28 59 -60 99 -176 222 -216 228 -1002 1009 -1093 1086
-140 119 -246 156 -445 156 l-95 0 -122 123 -123 122 62 95 c120 187 184 341
229 550 20 92 23 134 23 340 0 208 -2 247 -22 340 -121 554 -500 1005 -1018
1210 -229 91 -552 130 -829 98z m441 -494 c274 -47 538 -212 716 -449 84 -111
138 -214 185 -350 l38 -110 0 -240 0 -240 -33 -95 c-43 -124 -113 -262 -176
-347 -116 -157 -324 -323 -493 -393 -244 -102 -545 -116 -807 -39 -301 88
-601 362 -724 661 -146 353 -103 797 107 1106 55 82 198 231 280 292 89 67
266 154 376 185 159 45 342 52 531 19z"/>
</g>
</svg>
